<mxfile host="app.diagrams.net" modified="2020-10-11T14:43:08.862Z" agent="5.0 (Macintosh; Intel Mac OS X 10_14_6) AppleWebKit/537.36 (KHTML, like Gecko) Chrome/86.0.4240.75 Safari/537.36" etag="KYVldTmlZhI5gkq5ICvz" version="13.7.9" type="github">
  <diagram name="Page-1" id="74e2e168-ea6b-b213-b513-2b3c1d86103e">
    <mxGraphModel dx="1310" dy="703" grid="1" gridSize="10" guides="1" tooltips="1" connect="1" arrows="1" fold="1" page="1" pageScale="1" pageWidth="1100" pageHeight="850" background="#ffffff" math="0" shadow="0">
      <root>
        <mxCell id="0" />
        <mxCell id="1" parent="0" />
        <mxCell id="77e6c97f196da883-1" value="Database Reviewer" style="swimlane;html=1;childLayout=stackLayout;startSize=20;rounded=0;shadow=0;labelBackgroundColor=none;strokeWidth=1;fontFamily=Verdana;fontSize=8;align=center;" parent="1" vertex="1">
          <mxGeometry x="70" y="40" width="670" height="1150" as="geometry" />
        </mxCell>
        <mxCell id="77e6c97f196da883-2" value="Views" style="swimlane;html=1;startSize=20;" parent="77e6c97f196da883-1" vertex="1">
          <mxGeometry y="20" width="320" height="1130" as="geometry" />
        </mxCell>
        <mxCell id="Ar4ocjuunS-PLq0Bepjs-4" value="get XLSX reviewers data from manager" style="shape=parallelogram;perimeter=parallelogramPerimeter;whiteSpace=wrap;html=1;fixedSize=1;" vertex="1" parent="77e6c97f196da883-2">
          <mxGeometry x="20" y="120" width="195" height="60" as="geometry" />
        </mxCell>
        <mxCell id="Ar4ocjuunS-PLq0Bepjs-1" value="Start" style="ellipse;whiteSpace=wrap;html=1;" vertex="1" parent="77e6c97f196da883-2">
          <mxGeometry x="57.5" y="40" width="120" height="50" as="geometry" />
        </mxCell>
        <mxCell id="Ar4ocjuunS-PLq0Bepjs-5" value="" style="edgeStyle=orthogonalEdgeStyle;rounded=0;orthogonalLoop=1;jettySize=auto;html=1;" edge="1" parent="77e6c97f196da883-2" source="Ar4ocjuunS-PLq0Bepjs-1" target="Ar4ocjuunS-PLq0Bepjs-4">
          <mxGeometry relative="1" as="geometry" />
        </mxCell>
        <mxCell id="Ar4ocjuunS-PLq0Bepjs-19" value="Display preview&lt;br&gt;(if there is index has duplicate, mark it with different color cell.)" style="strokeWidth=2;html=1;shape=mxgraph.flowchart.display;whiteSpace=wrap;" vertex="1" parent="77e6c97f196da883-2">
          <mxGeometry x="26.25" y="230" width="182.5" height="80" as="geometry" />
        </mxCell>
        <mxCell id="Ar4ocjuunS-PLq0Bepjs-25" value="" style="edgeStyle=orthogonalEdgeStyle;rounded=1;orthogonalLoop=1;jettySize=auto;html=1;" edge="1" parent="77e6c97f196da883-2" source="Ar4ocjuunS-PLq0Bepjs-19" target="Ar4ocjuunS-PLq0Bepjs-24">
          <mxGeometry relative="1" as="geometry" />
        </mxCell>
        <mxCell id="Ar4ocjuunS-PLq0Bepjs-24" value="is any email has duplicate value?" style="rhombus;whiteSpace=wrap;html=1;strokeWidth=2;" vertex="1" parent="77e6c97f196da883-2">
          <mxGeometry x="61.25" y="350" width="112.5" height="80" as="geometry" />
        </mxCell>
        <mxCell id="Ar4ocjuunS-PLq0Bepjs-27" value="Yes" style="edgeStyle=orthogonalEdgeStyle;rounded=1;orthogonalLoop=1;jettySize=auto;html=1;" edge="1" parent="77e6c97f196da883-2" source="Ar4ocjuunS-PLq0Bepjs-24" target="Ar4ocjuunS-PLq0Bepjs-26">
          <mxGeometry relative="1" as="geometry" />
        </mxCell>
        <mxCell id="Ar4ocjuunS-PLq0Bepjs-28" style="edgeStyle=orthogonalEdgeStyle;rounded=1;orthogonalLoop=1;jettySize=auto;html=1;" edge="1" parent="77e6c97f196da883-2" source="Ar4ocjuunS-PLq0Bepjs-26">
          <mxGeometry relative="1" as="geometry">
            <mxPoint x="118" y="110" as="targetPoint" />
            <Array as="points">
              <mxPoint x="10" y="490" />
              <mxPoint x="10" y="110" />
            </Array>
          </mxGeometry>
        </mxCell>
        <mxCell id="Ar4ocjuunS-PLq0Bepjs-26" value="hide &quot;import&quot; button, ask manager to fix it." style="whiteSpace=wrap;html=1;strokeWidth=2;" vertex="1" parent="77e6c97f196da883-2">
          <mxGeometry x="57.5" y="470" width="120" height="40" as="geometry" />
        </mxCell>
        <mxCell id="77e6c97f196da883-3" value="Controller" style="swimlane;html=1;startSize=20;" parent="77e6c97f196da883-1" vertex="1">
          <mxGeometry x="320" y="20" width="350" height="1130" as="geometry" />
        </mxCell>
        <mxCell id="Ar4ocjuunS-PLq0Bepjs-11" value="No" style="edgeStyle=orthogonalEdgeStyle;rounded=1;orthogonalLoop=1;jettySize=auto;html=1;" edge="1" parent="77e6c97f196da883-3" source="Ar4ocjuunS-PLq0Bepjs-6" target="Ar4ocjuunS-PLq0Bepjs-10">
          <mxGeometry relative="1" as="geometry" />
        </mxCell>
        <mxCell id="Ar4ocjuunS-PLq0Bepjs-37" value="append email expertise and conference manager input expertise" style="whiteSpace=wrap;html=1;strokeWidth=2;" vertex="1" parent="77e6c97f196da883-3">
          <mxGeometry x="58.754999999999995" y="960" width="120" height="60" as="geometry" />
        </mxCell>
        <mxCell id="Ar4ocjuunS-PLq0Bepjs-46" value="No" style="edgeStyle=orthogonalEdgeStyle;rounded=1;orthogonalLoop=1;jettySize=auto;html=1;entryX=0.5;entryY=0;entryDx=0;entryDy=0;" edge="1" parent="77e6c97f196da883-3" source="Ar4ocjuunS-PLq0Bepjs-31" target="Ar4ocjuunS-PLq0Bepjs-45">
          <mxGeometry relative="1" as="geometry" />
        </mxCell>
        <mxCell id="Ar4ocjuunS-PLq0Bepjs-31" value="while &lt;br&gt;index &amp;lt; total rows&amp;nbsp;" style="rhombus;whiteSpace=wrap;html=1;strokeWidth=2;" vertex="1" parent="77e6c97f196da883-3">
          <mxGeometry x="78.75" y="690" width="80" height="80" as="geometry" />
        </mxCell>
        <mxCell id="Ar4ocjuunS-PLq0Bepjs-6" value="is upload &lt;br&gt;successfully?" style="rhombus;whiteSpace=wrap;html=1;" vertex="1" parent="77e6c97f196da883-3">
          <mxGeometry x="51.25" y="190" width="135" height="80" as="geometry" />
        </mxCell>
        <mxCell id="Ar4ocjuunS-PLq0Bepjs-9" value="Yes" style="edgeStyle=orthogonalEdgeStyle;rounded=0;orthogonalLoop=1;jettySize=auto;html=1;" edge="1" parent="77e6c97f196da883-3" source="Ar4ocjuunS-PLq0Bepjs-6" target="Ar4ocjuunS-PLq0Bepjs-8">
          <mxGeometry relative="1" as="geometry" />
        </mxCell>
        <mxCell id="Ar4ocjuunS-PLq0Bepjs-14" value="" style="edgeStyle=orthogonalEdgeStyle;rounded=0;orthogonalLoop=1;jettySize=auto;html=1;" edge="1" parent="77e6c97f196da883-3" source="Ar4ocjuunS-PLq0Bepjs-8" target="Ar4ocjuunS-PLq0Bepjs-13">
          <mxGeometry relative="1" as="geometry" />
        </mxCell>
        <mxCell id="Ar4ocjuunS-PLq0Bepjs-16" value="Yes" style="edgeStyle=orthogonalEdgeStyle;rounded=0;orthogonalLoop=1;jettySize=auto;html=1;" edge="1" parent="77e6c97f196da883-3" source="Ar4ocjuunS-PLq0Bepjs-13" target="Ar4ocjuunS-PLq0Bepjs-15">
          <mxGeometry relative="1" as="geometry" />
        </mxCell>
        <mxCell id="Ar4ocjuunS-PLq0Bepjs-8" value="load imported excel, using PHPExcel library" style="whiteSpace=wrap;html=1;" vertex="1" parent="77e6c97f196da883-3">
          <mxGeometry x="58.75" y="311" width="120" height="60" as="geometry" />
        </mxCell>
        <mxCell id="Ar4ocjuunS-PLq0Bepjs-13" value="is any email&lt;br&gt;&amp;nbsp;has duplicate value?" style="rhombus;whiteSpace=wrap;html=1;" vertex="1" parent="77e6c97f196da883-3">
          <mxGeometry x="47.5" y="392" width="142.5" height="80" as="geometry" />
        </mxCell>
        <mxCell id="Ar4ocjuunS-PLq0Bepjs-15" value="save that value (index)" style="whiteSpace=wrap;html=1;" vertex="1" parent="77e6c97f196da883-3">
          <mxGeometry x="58.75" y="510" width="120" height="40" as="geometry" />
        </mxCell>
        <mxCell id="Ar4ocjuunS-PLq0Bepjs-29" value="&lt;span&gt;load complete excel, using PHPExcel library&lt;/span&gt;" style="whiteSpace=wrap;html=1;strokeWidth=2;" vertex="1" parent="77e6c97f196da883-3">
          <mxGeometry x="58.75" y="590" width="120" height="60" as="geometry" />
        </mxCell>
        <mxCell id="Ar4ocjuunS-PLq0Bepjs-41" value="No" style="edgeStyle=orthogonalEdgeStyle;rounded=1;orthogonalLoop=1;jettySize=auto;html=1;entryX=1;entryY=0.5;entryDx=0;entryDy=0;" edge="1" parent="77e6c97f196da883-3" source="Ar4ocjuunS-PLq0Bepjs-35" target="Ar4ocjuunS-PLq0Bepjs-39">
          <mxGeometry relative="1" as="geometry">
            <Array as="points">
              <mxPoint x="240" y="870" />
              <mxPoint x="240" y="1080" />
            </Array>
          </mxGeometry>
        </mxCell>
        <mxCell id="Ar4ocjuunS-PLq0Bepjs-35" value="is email has expertise?" style="rhombus;whiteSpace=wrap;html=1;strokeWidth=2;" vertex="1" parent="77e6c97f196da883-3">
          <mxGeometry x="68.13" y="830" width="101.25" height="80" as="geometry" />
        </mxCell>
        <mxCell id="Ar4ocjuunS-PLq0Bepjs-44" style="edgeStyle=orthogonalEdgeStyle;rounded=1;orthogonalLoop=1;jettySize=auto;html=1;entryX=0.5;entryY=0;entryDx=0;entryDy=0;" edge="1" parent="77e6c97f196da883-3" source="Ar4ocjuunS-PLq0Bepjs-39" target="Ar4ocjuunS-PLq0Bepjs-31">
          <mxGeometry relative="1" as="geometry">
            <Array as="points">
              <mxPoint x="30" y="1080" />
              <mxPoint x="30" y="670" />
              <mxPoint x="119" y="670" />
            </Array>
          </mxGeometry>
        </mxCell>
        <mxCell id="Ar4ocjuunS-PLq0Bepjs-39" value="clean and filter from duplicate expertise&lt;br&gt;index++" style="whiteSpace=wrap;html=1;strokeWidth=2;" vertex="1" parent="77e6c97f196da883-3">
          <mxGeometry x="58.754999999999995" y="1050" width="120" height="60" as="geometry" />
        </mxCell>
        <mxCell id="Ar4ocjuunS-PLq0Bepjs-47" value="Finish" style="ellipse;whiteSpace=wrap;html=1;strokeWidth=2;" vertex="1" parent="77e6c97f196da883-3">
          <mxGeometry x="210.01" y="830" width="120" height="30" as="geometry" />
        </mxCell>
        <mxCell id="Ar4ocjuunS-PLq0Bepjs-45" value="Insert to database reviewers" style="whiteSpace=wrap;html=1;strokeWidth=2;" vertex="1" parent="77e6c97f196da883-3">
          <mxGeometry x="210.005" y="750" width="120" height="60" as="geometry" />
        </mxCell>
        <mxCell id="Ar4ocjuunS-PLq0Bepjs-10" value="status = 500" style="whiteSpace=wrap;html=1;" vertex="1" parent="77e6c97f196da883-3">
          <mxGeometry x="217.5" y="120" width="120" height="60" as="geometry" />
        </mxCell>
        <mxCell id="Ar4ocjuunS-PLq0Bepjs-32" value="" style="edgeStyle=orthogonalEdgeStyle;rounded=1;orthogonalLoop=1;jettySize=auto;html=1;" edge="1" parent="77e6c97f196da883-3" source="Ar4ocjuunS-PLq0Bepjs-29" target="Ar4ocjuunS-PLq0Bepjs-31">
          <mxGeometry relative="1" as="geometry" />
        </mxCell>
        <mxCell id="Ar4ocjuunS-PLq0Bepjs-36" value="Yes" style="edgeStyle=orthogonalEdgeStyle;rounded=1;orthogonalLoop=1;jettySize=auto;html=1;" edge="1" parent="77e6c97f196da883-3" source="Ar4ocjuunS-PLq0Bepjs-31" target="Ar4ocjuunS-PLq0Bepjs-35">
          <mxGeometry relative="1" as="geometry" />
        </mxCell>
        <mxCell id="Ar4ocjuunS-PLq0Bepjs-38" value="Yes" style="edgeStyle=orthogonalEdgeStyle;rounded=1;orthogonalLoop=1;jettySize=auto;html=1;" edge="1" parent="77e6c97f196da883-3" source="Ar4ocjuunS-PLq0Bepjs-35" target="Ar4ocjuunS-PLq0Bepjs-37">
          <mxGeometry relative="1" as="geometry" />
        </mxCell>
        <mxCell id="Ar4ocjuunS-PLq0Bepjs-40" value="" style="edgeStyle=orthogonalEdgeStyle;rounded=1;orthogonalLoop=1;jettySize=auto;html=1;" edge="1" parent="77e6c97f196da883-3" source="Ar4ocjuunS-PLq0Bepjs-37" target="Ar4ocjuunS-PLq0Bepjs-39">
          <mxGeometry relative="1" as="geometry" />
        </mxCell>
        <mxCell id="Ar4ocjuunS-PLq0Bepjs-48" value="" style="edgeStyle=orthogonalEdgeStyle;rounded=1;orthogonalLoop=1;jettySize=auto;html=1;" edge="1" parent="77e6c97f196da883-3" source="Ar4ocjuunS-PLq0Bepjs-45" target="Ar4ocjuunS-PLq0Bepjs-47">
          <mxGeometry relative="1" as="geometry" />
        </mxCell>
        <mxCell id="Ar4ocjuunS-PLq0Bepjs-7" value="" style="edgeStyle=orthogonalEdgeStyle;rounded=1;orthogonalLoop=1;jettySize=auto;html=1;" edge="1" parent="77e6c97f196da883-1" source="Ar4ocjuunS-PLq0Bepjs-4" target="Ar4ocjuunS-PLq0Bepjs-6">
          <mxGeometry relative="1" as="geometry" />
        </mxCell>
        <mxCell id="Ar4ocjuunS-PLq0Bepjs-20" style="edgeStyle=orthogonalEdgeStyle;rounded=1;orthogonalLoop=1;jettySize=auto;html=1;entryX=0.5;entryY=0;entryDx=0;entryDy=0;entryPerimeter=0;" edge="1" parent="77e6c97f196da883-1" source="Ar4ocjuunS-PLq0Bepjs-15" target="Ar4ocjuunS-PLq0Bepjs-19">
          <mxGeometry relative="1" as="geometry">
            <Array as="points">
              <mxPoint x="270" y="550" />
              <mxPoint x="270" y="230" />
              <mxPoint x="118" y="230" />
            </Array>
          </mxGeometry>
        </mxCell>
        <mxCell id="Ar4ocjuunS-PLq0Bepjs-23" value="No" style="edgeStyle=orthogonalEdgeStyle;rounded=1;orthogonalLoop=1;jettySize=auto;html=1;entryX=0.5;entryY=0;entryDx=0;entryDy=0;entryPerimeter=0;" edge="1" parent="77e6c97f196da883-1" source="Ar4ocjuunS-PLq0Bepjs-13" target="Ar4ocjuunS-PLq0Bepjs-19">
          <mxGeometry x="-0.8812" relative="1" as="geometry">
            <Array as="points">
              <mxPoint x="270" y="460" />
              <mxPoint x="270" y="230" />
              <mxPoint x="118" y="230" />
            </Array>
            <mxPoint x="1" as="offset" />
          </mxGeometry>
        </mxCell>
        <mxCell id="Ar4ocjuunS-PLq0Bepjs-30" value="No" style="edgeStyle=orthogonalEdgeStyle;rounded=1;orthogonalLoop=1;jettySize=auto;html=1;" edge="1" parent="77e6c97f196da883-1" source="Ar4ocjuunS-PLq0Bepjs-24" target="Ar4ocjuunS-PLq0Bepjs-29">
          <mxGeometry x="-0.8012" y="-10" relative="1" as="geometry">
            <Array as="points">
              <mxPoint x="220" y="410" />
              <mxPoint x="220" y="590" />
              <mxPoint x="439" y="590" />
            </Array>
            <mxPoint x="10" y="10" as="offset" />
          </mxGeometry>
        </mxCell>
        <mxCell id="Ar4ocjuunS-PLq0Bepjs-12" style="edgeStyle=orthogonalEdgeStyle;rounded=1;orthogonalLoop=1;jettySize=auto;html=1;exitX=0.5;exitY=0;exitDx=0;exitDy=0;" edge="1" parent="1" source="Ar4ocjuunS-PLq0Bepjs-10">
          <mxGeometry relative="1" as="geometry">
            <mxPoint x="190" y="170" as="targetPoint" />
            <Array as="points">
              <mxPoint x="668" y="170" />
            </Array>
          </mxGeometry>
        </mxCell>
      </root>
    </mxGraphModel>
  </diagram>
</mxfile>
